<svg width="512" height="512" viewBox="0 0 512 512" fill="none" xmlns="http://www.w3.org/2000/svg">
  <defs>
    <linearGradient id="opt1_bg" x1="0" y1="0" x2="512" y2="512" gradientUnits="userSpaceOnUse">
      <stop offset="0%" stop-color="#512BD4" />
      <stop offset="100%" stop-color="#1F1050" />
    </linearGradient>
    <linearGradient id="opt1_sand" x1="256" y1="150" x2="256" y2="362" gradientUnits="userSpaceOnUse">
      <stop offset="0%" stop-color="#00D2FF" />
      <stop offset="100%" stop-color="#7B42BC" />
    </linearGradient>
  </defs>
  <rect width="512" height="512" rx="100" fill="url(#opt1_bg)" />
  
  <!-- Glass Container -->
  <path d="M196 150 Q196 256 256 256 Q316 256 316 150 H196 Z" fill="#FFFFFF" fill-opacity="0.1" stroke="#FFFFFF" stroke-width="8"/>
  <path d="M196 362 Q196 256 256 256 Q316 256 316 362 H196 Z" fill="#FFFFFF" fill-opacity="0.1" stroke="#FFFFFF" stroke-width="8"/>
  
  <!-- Sand -->
  <path d="M216 150 Q216 230 256 250 Q296 230 296 150 H216 Z" fill="url(#opt1_sand)" />
  <path d="M216 362 Q216 280 256 262 Q296 280 296 362 H216 Z" fill="url(#opt1_sand)" />
  
  <!-- Flow -->
  <rect x="254" y="250" width="4" height="20" fill="#00D2FF" />
</svg>
